<svg width="200" height="200" viewBox="0 0 200 200" fill="none" xmlns="http://www.w3.org/2000/svg">
<path d="M100 200C155.228 200 200 155.228 200 100C200 44.7715 155.228 0 100 0C44.7715 0 0 44.7715 0 100C0 155.228 44.7715 200 100 200Z" fill="white"/>
<path d="M164.533 98.7468C166.089 98.7468 167.206 99.0844 167.883 99.7595C168.628 100.435 169 101.312 169 102.392C169 104.148 168.459 105.7 167.376 107.051C166.36 108.401 164.736 109.11 162.502 109.177C157.155 109.245 152.349 108.84 148.085 107.962C143.346 118.021 137.627 126.392 130.926 133.076C124.293 139.692 117.727 143 111.229 143C105.272 143 100.805 139.861 97.8268 133.582C94.8485 127.236 93.1563 118.764 92.7502 108.165C88.689 119.911 84.0862 128.654 78.942 134.392C73.8654 140.131 68.4504 143 62.697 143C56.199 143 51.2917 138.983 47.975 130.949C44.6583 122.848 43 111.979 43 98.3418C43 88.4177 43.8799 77.5148 45.6398 65.6329C46.1136 62.2574 46.9597 59.9283 48.1781 58.6456C49.4641 57.2954 51.4609 56.6203 54.1684 56.6203C56.199 56.6203 57.7558 57.0591 58.8388 57.9367C59.9895 58.8143 60.5649 60.4346 60.5649 62.7975C60.5649 63.27 60.4972 64.1814 60.3618 65.5316C58.3312 79.3713 57.3159 91.1519 57.3159 100.873C57.3159 109.92 58.0943 116.907 59.6511 121.835C61.2079 126.764 63.3062 129.228 65.946 129.228C68.3151 129.228 71.1579 126.764 74.4746 121.835C77.859 116.84 81.2095 109.481 84.5262 99.7595C87.8429 89.9705 90.6519 78.3249 92.9533 64.8228C93.4948 61.7173 94.4762 59.5907 95.8977 58.443C97.3868 57.2278 99.3836 56.6203 101.888 56.6203C103.986 56.6203 105.509 57.0928 106.457 58.038C107.472 58.9156 107.98 60.2658 107.98 62.0886C107.98 63.1688 107.912 64.0127 107.777 64.6203C105.882 75.6245 104.934 86.6287 104.934 97.6329C104.934 105.127 105.171 111.101 105.645 115.557C106.186 120.013 107.168 123.422 108.589 125.785C110.078 128.08 112.21 129.228 114.985 129.228C118.234 129.228 121.856 126.797 125.849 121.937C129.843 117.008 133.498 110.899 136.815 103.608C132.686 101.042 129.572 97.7342 127.474 93.6835C125.376 89.5654 124.326 84.8397 124.326 79.5063C124.326 74.173 125.139 69.6835 126.763 66.038C128.455 62.3249 130.723 59.557 133.566 57.7342C136.476 55.9114 139.691 55 143.211 55C147.543 55 150.961 56.5527 153.466 59.6582C156.038 62.7637 157.324 67.0169 157.324 72.4177C157.324 80.0464 155.666 88.519 152.349 97.8354C155.801 98.443 159.862 98.7468 164.533 98.7468ZM134.581 78.7975C134.581 85.4135 136.713 90.308 140.977 93.481C143.617 85.9198 144.937 79.6751 144.937 74.7468C144.937 71.9114 144.565 69.8523 143.82 68.5696C143.076 67.2194 142.06 66.5443 140.774 66.5443C138.947 66.5443 137.458 67.6245 136.307 69.7848C135.156 71.8776 134.581 74.8819 134.581 78.7975Z" fill="#151A1E"/>
</svg>